<?xml version="1.0" encoding="UTF-8" standalone="no"?>
<svg
   xmlns:dc="http://purl.org/dc/elements/1.1/"
   xmlns:cc="http://creativecommons.org/ns#"
   xmlns:rdf="http://www.w3.org/1999/02/22-rdf-syntax-ns#"
   xmlns:svg="http://www.w3.org/2000/svg"
   xmlns="http://www.w3.org/2000/svg"
   xmlns:sodipodi="http://sodipodi.sourceforge.net/DTD/sodipodi-0.dtd"
   xmlns:inkscape="http://www.inkscape.org/namespaces/inkscape"
   width="16"
   height="16"
   fill="currentColor"
   class="bi bi-file-earmark-binary-fill"
   viewBox="0 0 16 16"
   version="1.1"
   id="svg16"
   sodipodi:docname="file-earmark-binary-fill_.svg"
   inkscape:version="0.92.5 (2060ec1f9f, 2020-04-08)">
  <metadata
     id="metadata22">
    <rdf:RDF>
      <cc:Work
         rdf:about="">
        <dc:format>image/svg+xml</dc:format>
        <dc:type
           rdf:resource="http://purl.org/dc/dcmitype/StillImage" />
        <dc:title></dc:title>
      </cc:Work>
    </rdf:RDF>
  </metadata>
  <defs
     id="defs20" />
  <sodipodi:namedview
     pagecolor="#ffffff"
     bordercolor="#666666"
     borderopacity="1"
     objecttolerance="10"
     gridtolerance="10"
     guidetolerance="10"
     inkscape:pageopacity="0"
     inkscape:pageshadow="2"
     inkscape:window-width="1920"
     inkscape:window-height="1009"
     id="namedview18"
     showgrid="false"
     inkscape:zoom="29.5"
     inkscape:cx="4.1039693"
     inkscape:cy="4.7035892"
     inkscape:window-x="0"
     inkscape:window-y="34"
     inkscape:window-maximized="1"
     inkscape:current-layer="svg16" />
  <path
     d="M5.526 10.273c-.542 0-.832.563-.832 1.612 0 .088.003.173.006.252l1.559-1.143c-.126-.474-.375-.72-.733-.72zm-.732 2.508c.126.472.372.718.732.718.54 0 .83-.563.83-1.614 0-.085-.003-.17-.006-.25l-1.556 1.146z"
     id="path12" />
  <path
     d="M9.293 0H4a2 2 0 0 0-2 2v12a2 2 0 0 0 2 2h8a2 2 0 0 0 2-2V4.707A1 1 0 0 0 13.707 4L10 .293A1 1 0 0 0 9.293 0zM9.5 3.5v-2l3 3h-2a1 1 0 0 1-1-1zm-2.45 8.385c0 1.415-.548 2.206-1.524 2.206C4.548 14.09 4 13.3 4 11.885c0-1.412.548-2.203 1.526-2.203.976 0 1.524.79 1.524 2.203zm3.805 1.52V14h-3v-.595h1.181V10.5h-.05l-1.136.747v-.688l1.19-.786h.69v3.633h1.125z"
     id="path14" />
  <path
     style="fill:#8ad3fd;fill-opacity:1;stroke:#000000;stroke-width:1.04406774;stroke-linecap:round;stroke-linejoin:round;stroke-miterlimit:4;stroke-dasharray:none;stroke-opacity:1;paint-order:stroke fill markers"
     d="M 3.3694915,15.861957 C 2.8288833,15.667654 2.4511197,15.303664 2.1879502,14.723496 2.0529534,14.425889 2.0504083,14.303563 2.0489466,8.0425858 2.0472807,0.90702068 2.020376,1.3114281 2.535712,0.72597539 2.6867868,0.55434545 2.9666989,0.33146671 3.1577391,0.23068929 L 3.5050847,0.04745763 6.3186441,0.02616935 C 7.8661017,0.0144608 9.2694915,0.02480162 9.4372881,0.0491489 9.7288163,0.0914497 9.8319207,0.18258416 11.75764,2.1001206 c 1.108397,1.1036872 2.062734,2.1067325 2.120748,2.2289896 0.09302,0.1960264 0.103231,0.8092122 0.08643,5.1906552 l -0.01905,4.9683706 -0.154563,0.313713 c -0.209166,0.424542 -0.5773,0.788858 -0.992471,0.982179 l -0.344492,0.16041 -4.4406777,-0.0047 c -2.9928347,-0.0032 -4.5069914,-0.02852 -4.6440678,-0.07779 z m 2.8198452,-1.90445 C 6.8203195,13.624387 7.1006772,12.877925 7.0506688,11.664179 7.0240376,11.017816 6.9973148,10.892435 6.801342,10.494357 6.6301215,10.146559 6.5181401,10.01116 6.2922121,9.8787573 5.7319671,9.5504319 5.0411091,9.5925275 4.5975014,9.9820203 3.825246,10.66007 3.7531799,12.795155 4.4736485,13.651383 c 0.3894947,0.462888 1.1587633,0.600146 1.7156882,0.306124 z M 10.861017,13.708475 V 13.369492 H 10.319751 9.7784861 L 9.7604292,11.555932 9.7423729,9.7423729 9.4128508,9.7214034 C 9.1075186,9.7019729 9.036598,9.7312475 8.4467492,10.120192 L 7.8101695,10.53995 v 0.363923 c 0,0.200158 0.017385,0.363924 0.038632,0.363924 0.021248,0 0.1661629,-0.08702 0.3220339,-0.193372 0.1558709,-0.106354 0.4130627,-0.274533 0.5715373,-0.373732 l 0.2881356,-0.18036 v 1.42458 1.424579 H 8.420339 7.8101695 v 0.338983 0.338983 H 9.3355932 10.861017 Z M 12.488136,4.50565 c 0,-0.070856 -2.9352682,-3.0005653 -3.0062587,-3.0005653 -0.032043,0 -0.046658,0.511017 -0.032477,1.1355933 0.031986,1.4087798 0.1078007,1.6013014 0.7160587,1.8183517 0.274004,0.097775 2.322677,0.1388957 2.322677,0.04662 z"
     id="path834"
     inkscape:connector-curvature="0" />
</svg>
