<?xml version="1.0" encoding="UTF-8" standalone="no"?>
<svg
   xmlns:dc="http://purl.org/dc/elements/1.1/"
   xmlns:cc="http://creativecommons.org/ns#"
   xmlns:rdf="http://www.w3.org/1999/02/22-rdf-syntax-ns#"
   xmlns:svg="http://www.w3.org/2000/svg"
   xmlns="http://www.w3.org/2000/svg"
   xmlns:sodipodi="http://sodipodi.sourceforge.net/DTD/sodipodi-0.dtd"
   xmlns:inkscape="http://www.inkscape.org/namespaces/inkscape"
   width="16"
   height="16"
   fill="currentColor"
   class="bi bi-file-earmark-arrow-down-fill"
   viewBox="0 0 16 16"
   version="1.1"
   id="svg4"
   sodipodi:docname="file-earmark-arrow-down-fill_.svg"
   inkscape:version="0.92.5 (2060ec1f9f, 2020-04-08)">
  <metadata
     id="metadata10">
    <rdf:RDF>
      <cc:Work
         rdf:about="">
        <dc:format>image/svg+xml</dc:format>
        <dc:type
           rdf:resource="http://purl.org/dc/dcmitype/StillImage" />
        <dc:title></dc:title>
      </cc:Work>
    </rdf:RDF>
  </metadata>
  <defs
     id="defs8" />
  <sodipodi:namedview
     pagecolor="#ffffff"
     bordercolor="#666666"
     borderopacity="1"
     objecttolerance="10"
     gridtolerance="10"
     guidetolerance="10"
     inkscape:pageopacity="0"
     inkscape:pageshadow="2"
     inkscape:window-width="1920"
     inkscape:window-height="1009"
     id="namedview6"
     showgrid="false"
     inkscape:zoom="41.7193"
     inkscape:cx="5.4994522"
     inkscape:cy="5.9165236"
     inkscape:window-x="0"
     inkscape:window-y="34"
     inkscape:window-maximized="1"
     inkscape:current-layer="svg4" />
  <path
     d="M9.293 0H4a2 2 0 0 0-2 2v12a2 2 0 0 0 2 2h8a2 2 0 0 0 2-2V4.707A1 1 0 0 0 13.707 4L10 .293A1 1 0 0 0 9.293 0zM9.5 3.5v-2l3 3h-2a1 1 0 0 1-1-1zm-1 4v3.793l1.146-1.147a.5.5 0 0 1 .708.708l-2 2a.5.5 0 0 1-.708 0l-2-2a.5.5 0 0 1 .708-.708L7.5 11.293V7.5a.5.5 0 0 1 1 0z"
     id="path2" />
  <path
     style="fill:#fdbc8a;fill-opacity:0.91860467;stroke:#000000;stroke-width:0.52203387;stroke-linecap:round;stroke-linejoin:round;stroke-miterlimit:4;stroke-dasharray:none;stroke-opacity:1;paint-order:stroke fill markers"
     d="M 3.5059457,15.920604 C 3.1737272,15.832614 2.8957131,15.66839 2.6204498,15.397537 2.3630713,15.144283 2.2490203,14.965078 2.1031612,14.58474 L 2.0313694,14.397537 2.021884,8.1094015 C 2.0113388,1.1186429 1.9976657,1.5619142 2.238073,1.1006884 2.3915766,0.80618892 2.5582156,0.60800119 2.8084204,0.42236065 3.0731492,0.22594394 3.2999886,0.12567189 3.6305422,0.05895003 3.8619963,0.0122313 4.2541076,0.00663824 6.7093355,0.01503432 l 2.8135593,0.0096214 0.1864407,0.09204796 c 0.1532854,0.0756789 0.5339755,0.4403854 2.1407295,2.05084752 1.318033,1.3210754 1.980207,2.0084625 2.033898,2.1113419 l 0.07961,0.1525423 v 4.9830509 4.9830507 l -0.07925,0.220339 c -0.21153,0.588099 -0.658071,1.043564 -1.235229,1.259912 l -0.210942,0.07907 -4.3728813,0.0066 c -3.7361738,0.0056 -4.4000278,-6.28e-4 -4.559322,-0.04282 z m 4.6440678,-2.929309 c 0.091559,-0.02545 0.3711881,-0.286591 1.2248766,-1.143879 0.9617969,-0.965851 1.1091479,-1.127428 1.1285609,-1.237512 0.07131,-0.40439 -0.314597,-0.737256 -0.6796433,-0.58623 -0.085569,0.0354 -0.3354356,0.257816 -0.7161671,0.637483 L 8.5228948,11.244268 V 9.3316053 c 0,-1.8752973 -0.00139,-1.9155434 -0.071369,-2.0600926 C 8.2788633,6.9148402 7.8127592,6.8978314 7.5599101,7.2389768 7.4901602,7.3330832 7.4888399,7.366688 7.4794514,9.2867802 L 7.4699063,11.238907 6.8523328,10.627485 C 6.293767,10.074483 6.2209033,10.013744 6.089744,9.9917961 5.8998779,9.9600236 5.6550145,10.075185 5.5601867,10.240851 c -0.079351,0.138628 -0.084424,0.357555 -0.011484,0.495669 0.086643,0.164063 2.1984301,2.245772 2.2962264,2.263522 0.145022,0.02632 0.1828393,0.02524 0.3050848,-0.0087 z M 11.031369,3.0077066 C 10.201865,2.1780456 9.5107307,1.499232 9.4955141,1.499232 c -0.015217,0 -0.022908,0.4995763 -0.017092,1.1101695 0.00934,0.980757 0.017673,1.1259756 0.071465,1.2457627 0.1439905,0.3206431 0.3574495,0.5219777 0.6509449,0.6139719 0.09637,0.030206 0.454449,0.043166 1.237174,0.044777 l 1.101552,0.00227 z"
     id="path817"
     inkscape:connector-curvature="0" />
</svg>
