<?xml version="1.0" encoding="UTF-8" standalone="no"?>
<svg
   xmlns:dc="http://purl.org/dc/elements/1.1/"
   xmlns:cc="http://creativecommons.org/ns#"
   xmlns:rdf="http://www.w3.org/1999/02/22-rdf-syntax-ns#"
   xmlns:svg="http://www.w3.org/2000/svg"
   xmlns="http://www.w3.org/2000/svg"
   xmlns:sodipodi="http://sodipodi.sourceforge.net/DTD/sodipodi-0.dtd"
   xmlns:inkscape="http://www.inkscape.org/namespaces/inkscape"
   width="16"
   height="16"
   fill="currentColor"
   class="bi bi-file-earmark-plus-fill"
   viewBox="0 0 16 16"
   version="1.1"
   id="svg4"
   sodipodi:docname="file-earmark-plus-fill_.svg"
   inkscape:version="0.92.5 (2060ec1f9f, 2020-04-08)">
  <metadata
     id="metadata10">
    <rdf:RDF>
      <cc:Work
         rdf:about="">
        <dc:format>image/svg+xml</dc:format>
        <dc:type
           rdf:resource="http://purl.org/dc/dcmitype/StillImage" />
        <dc:title></dc:title>
      </cc:Work>
    </rdf:RDF>
  </metadata>
  <defs
     id="defs8" />
  <sodipodi:namedview
     pagecolor="#ffffff"
     bordercolor="#666666"
     borderopacity="1"
     objecttolerance="10"
     gridtolerance="10"
     guidetolerance="10"
     inkscape:pageopacity="0"
     inkscape:pageshadow="2"
     inkscape:window-width="1920"
     inkscape:window-height="1009"
     id="namedview6"
     showgrid="false"
     inkscape:zoom="29.5"
     inkscape:cx="4.6127863"
     inkscape:cy="8.4126702"
     inkscape:window-x="0"
     inkscape:window-y="34"
     inkscape:window-maximized="1"
     inkscape:current-layer="svg4" />
  <path
     d="M9.293 0H4a2 2 0 0 0-2 2v12a2 2 0 0 0 2 2h8a2 2 0 0 0 2-2V4.707A1 1 0 0 0 13.707 4L10 .293A1 1 0 0 0 9.293 0zM9.5 3.5v-2l3 3h-2a1 1 0 0 1-1-1zM8.5 7v1.5H10a.5.5 0 0 1 0 1H8.5V11a.5.5 0 0 1-1 0V9.5H6a.5.5 0 0 1 0-1h1.5V7a.5.5 0 0 1 1 0z"
     id="path2" />
  <path
     style="fill:#ff8ba0;fill-opacity:0.99224806;stroke:#000000;stroke-width:0.52203387;stroke-linecap:round;stroke-linejoin:round;stroke-miterlimit:4;stroke-dasharray:none;stroke-opacity:1;paint-order:stroke fill markers"
     d="M 3.7221224,15.963163 C 2.9928908,15.854107 2.3814113,15.347158 2.1218914,14.636483 L 2.0305255,14.386285 2.0207944,8.1320482 C 2.0138512,3.6695468 2.021825,1.8146874 2.0486279,1.6574719 2.1721526,0.93292369 2.7820662,0.27318988 3.5066388,0.08036491 3.6614279,0.03917207 4.1663382,0.03114633 6.6067967,0.03108674 l 2.9152542,-7.119e-5 0.1864407,0.08601897 c 0.1590241,0.0733697 0.4762194,0.37614897 2.1570234,2.05899088 1.861806,1.8640638 1.974545,1.9838014 2.042373,2.1691587 l 0.07179,0.1961871 v 4.8560129 c 0,5.3666549 0.0137,5.0230749 -0.219267,5.4973759 -0.223808,0.455643 -0.636211,0.809602 -1.153614,0.990127 l -0.271187,0.09462 -4.2203387,0.0047 c -2.3211865,0.0026 -4.2981035,-0.0069 -4.3931489,-0.02109 z m 4.5576112,-4.534117 c 0.047072,-0.03514 0.117037,-0.105985 0.155477,-0.157423 0.065386,-0.0875 0.070545,-0.146792 0.080039,-0.919961 L 8.5253984,9.5252261 9.3518343,9.5150777 C 10.260757,9.5039166 10.262026,9.5036316 10.435211,9.2714455 10.534373,9.1385007 10.529031,8.8609394 10.424485,8.7141177 10.272788,8.5010797 10.217447,8.4891133 9.3292997,8.4773068 L 8.5263794,8.4666333 8.5157404,7.6467983 C 8.5054153,6.8511156 8.502776,6.8237027 8.426158,6.7162824 8.2069523,6.4089505 7.7451696,6.4233699 7.5571486,6.743417 7.4939526,6.8509888 7.4872553,6.9283546 7.4774794,7.6637478 L 7.4668062,8.4666339 6.6639201,8.4773072 C 5.9285269,8.4870831 5.8511611,8.4937804 5.7435892,8.5569763 5.4235421,8.7449973 5.4091228,9.20678 5.7164547,9.4259858 5.823896,9.502619 5.851196,9.5052414 6.6491696,9.5155865 l 0.8220339,0.010657 2.034e-4,0.7351055 c 1.017e-4,0.432909 0.015619,0.790685 0.037722,0.870303 0.04103,0.147793 0.2223051,0.342039 0.3433447,0.367911 0.1350861,0.02888 0.3392882,-0.0048 0.4272743,-0.07052 z M 11.030526,2.9964549 C 10.201021,2.1667939 9.5098869,1.4879804 9.4946703,1.4879804 c -0.015217,0 -0.022236,0.4995762 -0.015598,1.1101695 0.010416,0.9581634 0.020238,1.1316749 0.071736,1.2672342 0.086074,0.2265729 0.2642285,0.4163485 0.5027397,0.5355339 l 0.208145,0.1040115 h 1.138511 1.13851 z"
     id="path822"
     inkscape:connector-curvature="0" />
</svg>
